<svg width="512" height="512" viewBox="0 0 512 512" fill="none" xmlns="http://www.w3.org/2000/svg">
  <rect width="512" height="512" rx="96" fill="#0F172A"/>

  <!-- Paper sheet -->
  <path d="M150 110H300L370 180V380C370 396 356 410 340 410H150C134 410 120 396 120 380V140C120 124 134 110 150 110Z"
        fill="#F8FAFC"/>

  <!-- Folded corner -->
  <path d="M300 110V170C300 181 309 190 320 190H370"
        fill="#CBD5E1"/>

  <!-- Citation trail -->
  <path d="M185 320C220 270 260 250 310 250C340 250 365 235 390 205"
        stroke="#38BDF8"
        stroke-width="14"
        stroke-linecap="round"/>

  <!-- Trail nodes -->
  <circle cx="185" cy="320" r="16" fill="#38BDF8"/>
  <circle cx="255" cy="270" r="14" fill="#38BDF8"/>
  <circle cx="320" cy="250" r="12" fill="#38BDF8"/>
  <circle cx="390" cy="205" r="16" fill="#38BDF8"/>

  <!-- Text lines -->
  <rect x="170" y="180" width="120" height="12" rx="6" fill="#CBD5E1"/>
  <rect x="170" y="215" width="150" height="12" rx="6" fill="#CBD5E1"/>
  <rect x="170" y="250" width="90" height="12" rx="6" fill="#CBD5E1"/>
</svg>